<svg xmlns="http://www.w3.org/2000/svg" version="1.1" xmlns:xlink="http://www.w3.org/1999/xlink" xmlns:svgjs="http://svgjs.dev/svgjs" width="308.7612359841165" height="304.915625" viewBox="0 0 2000 1500"><rect width="2000" height="1500" fill="#06283d"></rect><g transform="matrix(0.4444444444444444,0,0,0.4444444444444444,555.5555555555557,250)"><svg viewBox="0 0 320 360" data-background-color="#06283d" preserveAspectRatio="xMidYMid meet" height="2250" width="2000" xmlns="http://www.w3.org/2000/svg" xmlns:xlink="http://www.w3.org/1999/xlink"><g id="tight-bounds" transform="matrix(1,0,0,1,0,0)"><svg viewBox="0 0 320 360" height="360" width="320"><g><svg></svg></g><g><svg viewBox="0 0 320 360" height="360" width="320"><g><path d="M20.961 227.22l3.726 4.658-1.863-6.056c-0.466-2.795-3.726 0.466-1.863 1.398M25.153 224.425c1.397 2.329 2.795 4.658 2.795 6.987 0 3.261 2.795 4.658 5.123 5.589-3.261-3.726-5.124-13.974-7.918-12.576M204.017 26.929c7.918 0 15.371-0.932 23.756 0.931 20.495 5.124 37.729 15.371 49.374 29.811l32.606 52.169c1.397 13.042 4.192 27.482 3.726 43.319 3.261 0 2.795-4.658 6.521-5.59-3.726 9.316-5.59 20.961-6.521 34.469-2.329-7.453 0-18.632 0.466-24.687-3.261 5.124-5.124 1.397-5.124-0.932 0.466-3.726-1.397-3.261-2.795-4.658-5.124-4.658-8.384-9.782-12.11-17.7 2.329-6.055 2.795-14.905-4.658-19.563-2.329-1.397-5.124-3.726-6.521-7.453-1.863-5.124-5.124-11.179-4.193-19.097 0.466-2.329-6.987 5.124-11.179 1.863-18.166-12.576-36.332-27.016-58.224-39.127-11.645 0-20.029-4.192-24.221-9.316-3.726-4.658-0.932-10.713 4.658-11.179 3.261 0 6.987-0.932 9.782 0.932 0.466-1.863 2.329-4.192 4.657-4.192M157.904 16.215l0.932 0.466c4.658 0.932 6.987 7.453 12.11 5.124 0 3.261 0.466 6.521-0.466 8.85-1.397 3.726-5.59 3.726-8.85 3.726-31.208-1.863-49.374 11.179-68.471 22.358-5.124 3.261-10.713 5.59-14.906 9.782-20.029 18.632-41.921 35.866-47.045 70.335l-4.192 38.195c-0.466 4.192-5.124 8.384-4.192 13.508l3.26 22.824c-3.261-3.261-5.124 0.932-4.192 2.795 0.466 1.397 2.329 6.055 5.124 1.863 3.726 6.987 7.453 20.495 12.576 26.55 15.837 18.632 36.332 35.4 53.101 52.169 4.192-0.932 7.453-0.932 8.384-3.727 1.397 2.795-1.397 5.59-3.726 6.056 7.453 4.658 15.837 8.85 27.016 9.781 14.44 0.932 27.948 3.261 40.524 6.522 6.521-1.863 13.042-2.795 20.029-3.261 2.329 0 3.726-3.726 6.521-4.658l0.466-4.658c2.795 4.192 2.329-1.397 0.466-4.192 3.261 2.795 4.192 5.124 5.589 6.987 0-1.397 3.726-6.521 3.727-0.466l0.931-6.055c1.397-0.932 1.863 5.124 3.261 0.931 1.397-4.192 4.192-0.932 6.987-2.329-0.932 1.863-0.466 5.59 2.794 3.261l3.727-3.261c2.329 5.59 6.055 3.261 7.918 2.329 20.495-13.042 40.99-28.413 60.553-43.784l-0.466 6.055 2.329-7.453c2.329 2.329 4.192 0.466 5.124-0.931 2.795-4.658 6.521-9.316 12.577-13.508-7.453 20.029-16.303 35.866-27.482 48.908l-4.658 5.59c0 3.261-0.932 7.453-4.658 7.918-1.863 0.466-5.59-0.932-8.384 1.863-1.397 1.863 3.261 5.59-0.466 2.795-3.261-2.329-6.521 0-10.248 0.932-2.795 0.932 1.863 3.726 2.795 5.589 0.932 1.863 1.863 3.726 1.398 6.056l-5.124-5.59c-6.055 3.261-9.782 9.316-14.906 13.974-2.329 1.863-1.397 5.124-1.397 7.918-3.261 0-6.987-0.932-8.85 0.932-1.397 1.863-0.932 4.658-0.932 7.453-4.658-0.466-5.124-7.453-9.315-6.056-4.192 0.932-8.85 1.397-12.577 3.727 2.795 5.59-4.658 2.329-3.726 3.26-6.987-4.192-13.042-7.453-20.495-4.658-15.837-5.124-35.4-2.795-49.84-0.931 0-2.329 0.466-4.658-0.466-5.124-0.932 2.329-3.726 1.397-3.26 1.397-8.85-6.055-17.7-9.782-27.016-14.905-8.384 0.932-16.303-3.261-18.632-5.59-6.521-6.055-13.974-2.795-20.029-4.192-13.042-3.261-17.7-16.769-19.098-26.084-0.932-4.658-4.658-6.521-6.055-6.056-6.055-19.563-15.371-37.263-22.824-55.429-1.863-4.658-1.397-9.316-1.397-14.44 2.329 0.932 4.658 0.466 4.192-2.794-2.329-15.371-7.918-27.016-13.974-38.195 3.261-15.837 3.726-34.469 11.179-48.443 6.521-12.576 18.632-19.098 27.016-29.811 2.795-3.726 2.795-8.85 5.59-12.11 9.316-9.316 18.632-19.098 28.879-27.482 4.658-3.726 10.247 0 17.234-1.397 2.329-8.384 11.645-15.837 20.495-13.508 3.726 0.932 11.179-8.85 13.508-9.782 3.726-1.397 1.863 3.726 1.863 6.987 8.85-6.987 20.961-10.713 32.14-14.906" fill="#47b5ff" fill-rule="nonzero" stroke="none" stroke-width="1" stroke-linecap="butt" stroke-linejoin="miter" stroke-miterlimit="10" stroke-dasharray="" stroke-dashoffset="0" font-family="none" font-weight="none" font-size="none" text-anchor="none" style="mix-blend-mode: normal" data-fill-palette-color="tertiary"></path></g><g transform="matrix(1,0,0,1,70,90)"><svg viewBox="0 0 180 180" height="180" width="180"><g><svg viewBox="0 0 180 180" height="180" width="180"><g><svg viewBox="0 0 180 180" height="180" width="180"><g id="textblocktransform"><svg viewBox="0 0 180 180" height="180" width="180" id="textblock"><g><svg viewBox="0 0 180 180" height="180" width="180"><g transform="matrix(1,0,0,1,36.966991411008934,36.966991411008934)"><svg viewBox="0 0 106.06601717798213 106.06601717798213" height="106.06601717798213" width="106.06601717798213"><g><circle r="53" cx="53.033008588991066" cy="53.033008588991066" fill="#256d85" data-fill-palette-color="accent"></circle></g></svg></g><g><path d="M2.135 63.687l0.814-2.887 17.615 4.969-0.815 2.886z" fill="#dff6ff" data-fill-palette-color="primary"></path><path d="M23.937 31.232c0.729-0.857 1.544-1.472 2.447-1.844 0.903-0.371 1.767-0.531 2.594-0.477v0l-1.604-1.363 1.962-2.309 11.234 9.547c1.018 0.865 1.742 1.849 2.173 2.955 0.431 1.105 0.529 2.256 0.295 3.452-0.23 1.192-0.824 2.351-1.781 3.477v0c-1.273 1.498-2.682 2.444-4.227 2.839-1.536 0.394-2.965 0.145-4.288-0.748v0l1.923-2.262c0.728 0.316 1.509 0.339 2.343 0.069 0.839-0.265 1.595-0.793 2.266-1.583v0c0.786-0.925 1.139-1.91 1.058-2.957-0.075-1.042-0.65-2.02-1.724-2.933v0l-1.844-1.567c0.192 0.831 0.186 1.728-0.019 2.692-0.215 0.965-0.68 1.868-1.396 2.71v0c-0.816 0.961-1.805 1.633-2.967 2.016-1.167 0.378-2.384 0.429-3.652 0.152-1.269-0.287-2.458-0.902-3.569-1.845v0c-1.111-0.944-1.899-2.01-2.366-3.199-0.457-1.189-0.585-2.383-0.384-3.582 0.201-1.199 0.709-2.279 1.526-3.24zM32.89 32.236c-0.759-0.645-1.554-1.05-2.385-1.213-0.831-0.163-1.608-0.117-2.333 0.139-0.729 0.261-1.344 0.686-1.844 1.275v0c-0.5 0.589-0.821 1.259-0.962 2.011-0.146 0.748-0.074 1.516 0.216 2.305 0.285 0.785 0.81 1.502 1.574 2.152v0c0.764 0.65 1.567 1.061 2.409 1.233 0.841 0.172 1.631 0.132 2.37-0.121 0.739-0.262 1.351-0.68 1.839-1.253v0c0.5-0.589 0.821-1.264 0.961-2.025 0.136-0.756 0.053-1.534-0.247-2.332-0.3-0.798-0.833-1.522-1.598-2.171z" fill="#dff6ff" data-fill-palette-color="primary"></path><path d="M65.257 19.869c-1.273 0.504-2.538 0.67-3.795 0.497-1.257-0.173-2.387-0.669-3.39-1.489-1.009-0.818-1.789-1.92-2.338-3.306v0c-0.542-1.367-0.721-2.704-0.538-4.008 0.185-1.298 0.688-2.442 1.506-3.43 0.821-0.982 1.875-1.727 3.16-2.237v0c1.292-0.512 2.573-0.692 3.844-0.539 1.267 0.161 2.413 0.652 3.438 1.471 1.027 0.825 1.811 1.922 2.353 3.289v0c0.544 1.374 0.718 2.712 0.519 4.016-0.204 1.306-0.727 2.461-1.569 3.465-0.835 1.002-1.899 1.759-3.19 2.271zM64.298 17.449c0.718-0.285 1.325-0.722 1.821-1.312 0.493-0.596 0.798-1.315 0.917-2.157 0.121-0.835-0.013-1.745-0.403-2.728v0c-0.387-0.977-0.904-1.731-1.553-2.261-0.639-0.527-1.339-0.84-2.1-0.94-0.752-0.096-1.488-0.001-2.206 0.284v0c-0.718 0.285-1.316 0.718-1.792 1.301-0.474 0.589-0.757 1.292-0.849 2.108-0.09 0.823 0.059 1.723 0.446 2.699v0c0.577 1.456 1.393 2.43 2.449 2.923 1.058 0.499 2.148 0.527 3.27 0.083z" fill="#dff6ff" data-fill-palette-color="primary"></path><path d="M97.956 2.265c0.48-0.714 1.097-1.254 1.85-1.62 0.747-0.373 1.621-0.533 2.623-0.478v0l-0.169 3.096-0.761-0.041c-1.178-0.064-2.084 0.185-2.719 0.748-0.642 0.562-1.003 1.581-1.083 3.056v0l-0.416 7.625-2.995-0.163 0.79-14.488 2.995 0.163z" fill="#dff6ff" data-fill-palette-color="primary"></path><path d="M153.889 46.672l-2.599-2.941 1.439-10.73-6.133 5.421-1.986-2.248 13.712-12.121 1.986 2.247-6.254 5.529 10.968-0.196 2.492 2.818-12.13 0.111z" fill="#dff6ff" data-fill-palette-color="primary"></path><path d="M163.603 67.818c-0.166-0.516-0.13-1.005 0.106-1.465 0.241-0.469 0.62-0.786 1.136-0.952v0c0.516-0.166 1.009-0.128 1.478 0.112 0.46 0.237 0.773 0.613 0.939 1.13v0c0.162 0.503 0.124 0.985-0.112 1.446-0.241 0.469-0.62 0.786-1.137 0.952v0c-0.516 0.166-1.009 0.128-1.477-0.113-0.46-0.237-0.771-0.607-0.933-1.11z" fill="#dff6ff" data-fill-palette-color="primary"></path><path d="M23.399 110.314l0.814 2.887-17.614 4.969-0.814-2.887z" fill="#dff6ff" data-fill-palette-color="primary"></path><path d="M35.349 139.069c0.729 0.857 1.203 1.762 1.424 2.713 0.221 0.951 0.239 1.83 0.053 2.637v0l1.604-1.363 1.962 2.309-11.234 9.547c-1.018 0.865-2.106 1.421-3.266 1.668-1.16 0.247-2.311 0.159-3.456-0.266-1.139-0.419-2.187-1.192-3.144-2.318v0c-1.273-1.498-1.98-3.041-2.12-4.63-0.141-1.579 0.336-2.949 1.43-4.111v0l1.923 2.262c-0.429 0.667-0.578 1.434-0.447 2.301 0.126 0.871 0.525 1.702 1.198 2.492v0c0.786 0.925 1.702 1.432 2.747 1.522 1.041 0.094 2.098-0.315 3.172-1.229v0l1.844-1.567c-0.851 0.056-1.735-0.095-2.653-0.453-0.917-0.368-1.734-0.973-2.45-1.815v0c-0.816-0.961-1.32-2.045-1.51-3.253-0.185-1.212-0.039-2.422 0.439-3.629 0.487-1.206 1.286-2.281 2.397-3.224v0c1.111-0.944 2.29-1.55 3.538-1.819 1.247-0.259 2.447-0.193 3.597 0.198 1.151 0.392 2.135 1.068 2.952 2.028zM32.913 147.744c0.759-0.645 1.287-1.365 1.582-2.158 0.295-0.794 0.375-1.569 0.239-2.325-0.14-0.762-0.46-1.437-0.96-2.026v0c-0.5-0.589-1.11-1.013-1.83-1.273-0.714-0.265-1.484-0.318-2.31-0.159-0.82 0.155-1.613 0.557-2.377 1.206v0c-0.764 0.65-1.299 1.376-1.605 2.178-0.306 0.802-0.393 1.589-0.264 2.359 0.139 0.771 0.453 1.443 0.94 2.017v0c0.5 0.589 1.115 1.014 1.844 1.275 0.725 0.256 1.505 0.3 2.341 0.132 0.836-0.168 1.636-0.576 2.4-1.226z" fill="#dff6ff" data-fill-palette-color="primary"></path><path d="M59.739 174.055c-1.273-0.504-2.308-1.25-3.105-2.237-0.797-0.987-1.281-2.122-1.45-3.407-0.175-1.287 0.012-2.624 0.561-4.01v0c0.542-1.367 1.326-2.464 2.353-3.289 1.024-0.819 2.173-1.308 3.447-1.467 1.271-0.153 2.549 0.026 3.835 0.535v0c1.292 0.512 2.348 1.259 3.169 2.24 0.813 0.985 1.312 2.127 1.497 3.426 0.183 1.305 0.003 2.641-0.538 4.009v0c-0.544 1.374-1.335 2.468-2.372 3.281-1.043 0.811-2.216 1.295-3.517 1.45-1.295 0.158-2.588-0.019-3.88-0.531zM60.698 171.635c0.718 0.285 1.46 0.382 2.225 0.291 0.768-0.097 1.483-0.411 2.146-0.943 0.66-0.526 1.185-1.28 1.575-2.263v0c0.387-0.977 0.526-1.88 0.418-2.711-0.105-0.822-0.4-1.529-0.887-2.123-0.483-0.585-1.083-1.02-1.802-1.305v0c-0.718-0.285-1.451-0.378-2.196-0.28-0.749 0.104-1.436 0.423-2.063 0.955-0.629 0.538-1.137 1.296-1.524 2.272v0c-0.577 1.456-0.65 2.725-0.218 3.807 0.429 1.089 1.204 1.855 2.326 2.3z" fill="#dff6ff" data-fill-palette-color="primary"></path><path d="M97.395 167.451c0.4-0.762 0.954-1.366 1.663-1.812 0.702-0.452 1.553-0.706 2.555-0.76v0l0.169 3.096-0.761 0.042c-1.178 0.064-2.051 0.411-2.622 1.039-0.577 0.629-0.825 1.681-0.744 3.156v0l0.416 7.625-2.995 0.163-0.79-14.488 2.995-0.163z" fill="#dff6ff" data-fill-palette-color="primary"></path><path d="M164.76 142.937l-2.599 2.941-10.826-0.111 6.132 5.421-1.986 2.247-13.712-12.121 1.986-2.248 6.254 5.529-1.54-10.861 2.492-2.819 1.597 12.025z" fill="#dff6ff" data-fill-palette-color="primary"></path><path d="M177.767 116.728c-0.166 0.516-0.479 0.893-0.94 1.13-0.469 0.241-0.962 0.279-1.478 0.113v0c-0.516-0.166-0.895-0.483-1.136-0.952-0.237-0.46-0.272-0.949-0.106-1.465v0c0.162-0.503 0.473-0.873 0.933-1.11 0.469-0.241 0.962-0.279 1.478-0.113v0c0.516 0.166 0.895 0.483 1.136 0.952 0.237 0.46 0.274 0.942 0.113 1.446z" fill="#dff6ff" data-fill-palette-color="primary"></path><path d="M7.44 90c0-1.158 0.939-2.097 2.097-2.098 1.158 0 2.097 0.939 2.098 2.098 0 1.158-0.939 2.097-2.098 2.097-1.158 0-2.097-0.939-2.097-2.097z" fill="#dff6ff" data-fill-palette-color="primary"></path><path d="M172.158 90c0-1.158 0.939-2.097 2.098-2.098 1.158 0 2.097 0.939 2.097 2.098 0 1.158-0.939 2.097-2.097 2.097-1.158 0-2.097-0.939-2.098-2.097z" fill="#dff6ff" data-fill-palette-color="primary"></path></g></svg></g></svg></g></svg></g><g></g></svg></g></svg></g></svg></g><defs></defs></svg><rect width="320" height="360" fill="none" stroke="none" visibility="hidden"></rect></g></svg></g></svg>